<?xml version="1.0" encoding="UTF-8" standalone="no"?>
<!-- Created with sK1/UniConvertor (http://sk1project.org/) -->

<svg
   xmlns:dc="http://purl.org/dc/elements/1.1/"
   xmlns:cc="http://creativecommons.org/ns#"
   xmlns:rdf="http://www.w3.org/1999/02/22-rdf-syntax-ns#"
   xmlns:svg="http://www.w3.org/2000/svg"
   xmlns="http://www.w3.org/2000/svg"
   xmlns:sodipodi="http://sodipodi.sourceforge.net/DTD/sodipodi-0.dtd"
   xmlns:inkscape="http://www.inkscape.org/namespaces/inkscape"
   width="595.27625"
   height="88.107498"
   viewBox="0 0 476.22102 70.485994"
   id="svg2"
   version="1.1"
   inkscape:version="0.48+devel r10527 custom"
   sodipodi:docname="bertram.svg"
   style="fill-rule:evenodd">
  <metadata
     id="metadata302">
    <rdf:RDF>
      <cc:Work
         rdf:about="">
        <dc:format>image/svg+xml</dc:format>
        <dc:type
           rdf:resource="http://purl.org/dc/dcmitype/StillImage" />
        <dc:title></dc:title>
      </cc:Work>
    </rdf:RDF>
  </metadata>
  <defs
     id="defs300" />
  <sodipodi:namedview
     pagecolor="#ffffff"
     bordercolor="#666666"
     borderopacity="1"
     objecttolerance="10"
     gridtolerance="10"
     guidetolerance="10"
     inkscape:pageopacity="0"
     inkscape:pageshadow="2"
     inkscape:window-width="1336"
     inkscape:window-height="981"
     id="namedview298"
     showgrid="false"
     inkscape:zoom="0.89702928"
     inkscape:cx="113.21116"
     inkscape:cy="-53.434352"
     inkscape:window-x="427"
     inkscape:window-y="85"
     inkscape:window-maximized="0"
     inkscape:current-layer="g96"
     fit-margin-top="0"
     fit-margin-left="0"
     fit-margin-right="0"
     fit-margin-bottom="0" />
  <g
     id="g96"
     transform="translate(-198.425,263.62194)">
    <path
       inkscape:connector-curvature="0"
       id="path98"
       d="m 198.425,-263.622 21.931,0 0,24.67 40.73,0 0,45.816 -62.661,0 0,-70.486 z m 21.931,36.418 18.799,0 0,22.32 -18.799,0 0,-22.32 z"
       style="fill:#808080;stroke:none" />
    <path
       inkscape:connector-curvature="0"
       id="path100"
       d="m 289.289,-227.204 18.792,0 0,5.874 -18.792,0 0,-5.874 z m -21.937,-11.748 62.66,0 0,28.194 -40.723,0 0,5.874 46.99,0 0,-34.068 62.66,0 0,28.194 -21.931,0 0,-16.446 -18.798,0 0,34.068 -90.858,0 0,-45.816 z"
       style="fill:#808080;stroke:none" />
    <path
       inkscape:connector-curvature="0"
       id="path102"
       d="m 398.939,-255.399 6.266,0 0,-8.223 21.931,0 0,8.223 28.198,0 0,10.573 -28.198,0 0,39.942 6.266,0 0,-34.068 62.661,0 0,28.194 -21.931,0 0,-16.446 -18.798,0 0,34.068 -50.129,0 0,-51.69 -6.266,0 0,-10.573 z"
       style="fill:#808080;stroke:none" />
    <path
       inkscape:connector-curvature="0"
       id="path104"
       d="m 502.329,-238.952 62.661,0 0,34.068 6.266,0 0,-34.068 103.39,0 0,45.816 -21.932,0 0,-34.068 -18.798,0 0,34.068 -21.931,0 0,-34.068 -18.798,0 0,34.068 -90.858,0 0,-28.194 40.729,0 0,-5.874 -40.729,0 0,-11.748 z m 21.931,28.194 18.798,0 0,5.874 -18.798,0 0,-5.874 z"
       style="fill:#808080;stroke:none" />
  </g>
  <g
     id="g296"
     transform="translate(-198.425,263.62194)" />
</svg>
